<svg width="14" height="21" viewBox="0 0 14 21" fill="none" xmlns="http://www.w3.org/2000/svg">
<path d="M2 2.64954V18.6495H12V2.64954H2ZM1 0.649536H13C13.2652 0.649536 13.5196 0.754893 13.7071 0.942429C13.8946 1.12997 14 1.38432 14 1.64954V19.6495C14 19.9148 13.8946 20.1691 13.7071 20.3566C13.5196 20.5442 13.2652 20.6495 13 20.6495H1C0.734784 20.6495 0.48043 20.5442 0.292893 20.3566C0.105357 20.1691 0 19.9148 0 19.6495V1.64954C0 1.38432 0.105357 1.12997 0.292893 0.942429C0.48043 0.754893 0.734784 0.649536 1 0.649536ZM7 15.6495C7.26522 15.6495 7.51957 15.7549 7.70711 15.9424C7.89464 16.13 8 16.3843 8 16.6495C8 16.9148 7.89464 17.1691 7.70711 17.3566C7.51957 17.5442 7.26522 17.6495 7 17.6495C6.73478 17.6495 6.48043 17.5442 6.29289 17.3566C6.10536 17.1691 6 16.9148 6 16.6495C6 16.3843 6.10536 16.13 6.29289 15.9424C6.48043 15.7549 6.73478 15.6495 7 15.6495Z" fill="black"/>
</svg>
